<?xml version="1.0" encoding="utf-8"?>
<!-- Generator: Adobe Illustrator 25.1.0, SVG Export Plug-In . SVG Version: 6.00 Build 0)  -->
<svg version="1.1" id="OuterBall" xmlns="http://www.w3.org/2000/svg" xmlns:xlink="http://www.w3.org/1999/xlink" x="0px" y="0px"
	 viewBox="0 0 530 529" style="enable-background:new 0 0 530 529;" xml:space="preserve">
<style type="text/css">
	.st0{fill:#0B3D91;}
	.st1{fill-rule:evenodd;clip-rule:evenodd;fill:#124AA7;}
	.st2{fill-rule:evenodd;clip-rule:evenodd;fill:#1553BF;}
	.st3{fill-rule:evenodd;clip-rule:evenodd;fill:#185FD9;}
	.st4{fill-rule:evenodd;clip-rule:evenodd;fill:#1B6AF2;}
	.st5{fill-rule:evenodd;clip-rule:evenodd;fill:#1C6FFF;}
	.st6{fill-rule:evenodd;clip-rule:evenodd;fill:#FFBF00;}
	.st7{fill-rule:evenodd;clip-rule:evenodd;fill:#FFD400;}
	.st8{fill-rule:evenodd;clip-rule:evenodd;fill:#FFEF43;}
	.st9{fill-rule:evenodd;clip-rule:evenodd;fill:#FFF696;}
	.st10{fill-rule:evenodd;clip-rule:evenodd;fill:#FFFFFF;}
	.st11{display:none;fill:#FFFFFF;}
</style>
<circle class="st0" cx="264" cy="266" r="200"/>
<path class="st1" d="M264.7,79.2c103.6,0,187.5,83.9,187.5,187.5s-83.9,187.5-187.5,187.5S77.2,370.3,77.2,266.7
	S161.2,79.2,264.7,79.2z M264.7,79.2c103.6,0,187.5,84,187.5,187.5s-84,187.5-187.5,187.5s-187.5-84-187.5-187.5
	S161.2,79.2,264.7,79.2L264.7,79.2z M264.7,79.2c103.6,0,187.5,84,187.5,187.5s-84,187.5-187.5,187.5s-187.5-84-187.5-187.5
	S161.2,79.2,264.7,79.2L264.7,79.2z M264.7,79.2c103.6,0,187.5,84,187.5,187.5s-84,187.5-187.5,187.5s-187.5-84-187.5-187.5
	S161.2,79.2,264.7,79.2L264.7,79.2z M264.7,79.2c103.6,0,187.5,84,187.5,187.5s-84,187.5-187.5,187.5s-187.5-84-187.5-187.5
	S161.2,79.2,264.7,79.2L264.7,79.2z M264.7,79.2c103.6,0,187.5,84,187.5,187.5s-84,187.5-187.5,187.5s-187.5-84-187.5-187.5
	S161.2,79.2,264.7,79.2L264.7,79.2z"/>
<path class="st2" d="M265.3,92.3c96.6,0,175,78.4,175,175s-78.4,175-175,175s-175-78.4-175-175l0,0
	C90.3,170.7,168.7,92.3,265.3,92.3z M265.3,92.3c96.7,0,175,78.4,175,175c0,96.7-78.4,175-175,175c-96.7,0-175-78.4-175-175
	C90.3,170.7,168.7,92.3,265.3,92.3C265.3,92.3,265.3,92.3,265.3,92.3L265.3,92.3z M265.3,92.3c96.7,0,175,78.4,175,175
	c0,96.7-78.4,175-175,175c-96.7,0-175-78.4-175-175C90.3,170.7,168.7,92.3,265.3,92.3C265.3,92.3,265.3,92.3,265.3,92.3L265.3,92.3z
	 M265.3,92.3c96.7,0,175,78.4,175,175c0,96.7-78.4,175-175,175c-96.7,0-175-78.4-175-175C90.3,170.7,168.7,92.3,265.3,92.3
	C265.3,92.3,265.3,92.3,265.3,92.3L265.3,92.3z M265.3,92.3c96.7,0,175,78.4,175,175c0,96.7-78.4,175-175,175
	c-96.7,0-175-78.4-175-175C90.3,170.7,168.7,92.3,265.3,92.3C265.3,92.3,265.3,92.3,265.3,92.3L265.3,92.3z M265.3,92.3
	c96.7,0,175,78.4,175,175c0,96.7-78.4,175-175,175c-96.7,0-175-78.4-175-175C90.3,170.7,168.7,92.3,265.3,92.3
	C265.3,92.3,265.3,92.3,265.3,92.3L265.3,92.3z"/>
<path class="st3" d="M265.8,105.3c89.7,0,162.5,72.8,162.5,162.5s-72.8,162.5-162.5,162.5s-162.5-72.8-162.5-162.5l0,0
	C103.3,178.1,176.1,105.3,265.8,105.3z M265.8,105.3c89.8,0,162.5,72.8,162.5,162.5s-72.8,162.5-162.5,162.5
	s-162.5-72.8-162.5-162.5l0,0C103.3,178.1,176.1,105.3,265.8,105.3L265.8,105.3z M265.8,105.3c89.8,0,162.5,72.8,162.5,162.5
	s-72.8,162.5-162.5,162.5s-162.5-72.8-162.5-162.5l0,0C103.3,178.1,176.1,105.3,265.8,105.3L265.8,105.3z M265.8,105.3
	c89.8,0,162.5,72.8,162.5,162.5s-72.8,162.5-162.5,162.5s-162.5-72.8-162.5-162.5l0,0C103.3,178.1,176.1,105.3,265.8,105.3
	L265.8,105.3z M265.8,105.3c89.8,0,162.5,72.8,162.5,162.5s-72.8,162.5-162.5,162.5s-162.5-72.8-162.5-162.5l0,0
	C103.3,178.1,176.1,105.3,265.8,105.3L265.8,105.3z M265.8,105.3c89.8,0,162.5,72.8,162.5,162.5s-72.8,162.5-162.5,162.5
	s-162.5-72.8-162.5-162.5l0,0C103.3,178.1,176.1,105.3,265.8,105.3L265.8,105.3z"/>
<path class="st4" d="M264.3,116.3c82.8,0,150,67.2,150,150s-67.2,150-150,150s-150-67.2-150-150l0,0
	C114.3,183.5,181.5,116.3,264.3,116.3z M264.3,116.3c82.8,0,150,67.2,150,150s-67.2,150-150,150s-150-67.2-150-150
	C114.3,183.5,181.5,116.3,264.3,116.3C264.3,116.3,264.3,116.3,264.3,116.3L264.3,116.3z M264.3,116.3c82.8,0,150,67.2,150,150
	s-67.2,150-150,150s-150-67.2-150-150C114.3,183.5,181.5,116.3,264.3,116.3C264.3,116.3,264.3,116.3,264.3,116.3L264.3,116.3z
	 M264.3,116.3c82.8,0,150,67.2,150,150s-67.2,150-150,150s-150-67.2-150-150C114.3,183.5,181.5,116.3,264.3,116.3
	C264.3,116.3,264.3,116.3,264.3,116.3L264.3,116.3z M264.3,116.3c82.8,0,150,67.2,150,150s-67.2,150-150,150s-150-67.2-150-150
	C114.3,183.5,181.5,116.3,264.3,116.3C264.3,116.3,264.3,116.3,264.3,116.3L264.3,116.3z M264.3,116.3c82.8,0,150,67.2,150,150
	s-67.2,150-150,150s-150-67.2-150-150C114.3,183.5,181.5,116.3,264.3,116.3C264.3,116.3,264.3,116.3,264.3,116.3L264.3,116.3z"/>
<path class="st5" d="M264.8,130.3c75.9,0,137.5,61.6,137.5,137.5s-61.6,137.5-137.5,137.5s-137.5-61.6-137.5-137.5
	S188.9,130.3,264.8,130.3z M264.8,130.3c75.9,0,137.5,61.6,137.5,137.5c0,75.9-61.6,137.5-137.5,137.5
	c-75.9,0-137.5-61.6-137.5-137.5c0,0,0,0,0,0C127.3,191.9,188.9,130.3,264.8,130.3L264.8,130.3z M264.8,130.3
	c75.9,0,137.5,61.6,137.5,137.5c0,75.9-61.6,137.5-137.5,137.5c-75.9,0-137.5-61.6-137.5-137.5c0,0,0,0,0,0
	C127.3,191.9,188.9,130.3,264.8,130.3L264.8,130.3z M264.8,130.3c75.9,0,137.5,61.6,137.5,137.5c0,75.9-61.6,137.5-137.5,137.5
	c-75.9,0-137.5-61.6-137.5-137.5c0,0,0,0,0,0C127.3,191.9,188.9,130.3,264.8,130.3L264.8,130.3z M264.8,130.3
	c75.9,0,137.5,61.6,137.5,137.5c0,75.9-61.6,137.5-137.5,137.5c-75.9,0-137.5-61.6-137.5-137.5c0,0,0,0,0,0
	C127.3,191.9,188.9,130.3,264.8,130.3L264.8,130.3z M264.8,130.3c75.9,0,137.5,61.6,137.5,137.5c0,75.9-61.6,137.5-137.5,137.5
	c-75.9,0-137.5-61.6-137.5-137.5c0,0,0,0,0,0C127.3,191.9,188.9,130.3,264.8,130.3L264.8,130.3z"/>
<path class="st6" d="M263.5,226c22.1,0,40,17.9,40,40s-17.9,40-40,40s-40-17.9-40-40S241.4,226,263.5,226z M263.5,226
	c22.1,0,40,17.9,40,40s-17.9,40-40,40s-40-17.9-40-40S241.4,226,263.5,226z M263.5,226c22.1,0,40,17.9,40,40s-17.9,40-40,40
	s-40-17.9-40-40S241.4,226,263.5,226z M263.5,226c22.1,0,40,17.9,40,40s-17.9,40-40,40s-40-17.9-40-40S241.4,226,263.5,226z
	 M263.5,226c22.1,0,40,17.9,40,40s-17.9,40-40,40s-40-17.9-40-40S241.4,226,263.5,226z M263.5,226c22.1,0,40,17.9,40,40
	s-17.9,40-40,40s-40-17.9-40-40S241.4,226,263.5,226z"/>
<path class="st7" d="M263.5,231c19.3,0,35,15.7,35,35s-15.7,35-35,35s-35-15.7-35-35l0,0C228.5,246.7,244.2,231,263.5,231z
	 M263.5,231c19.3,0,35,15.7,35,35s-15.7,35-35,35s-35-15.7-35-35l0,0C228.5,246.7,244.2,231,263.5,231z M263.5,231
	c19.3,0,35,15.7,35,35s-15.7,35-35,35s-35-15.7-35-35l0,0C228.5,246.7,244.2,231,263.5,231z M263.5,231c19.3,0,35,15.7,35,35
	s-15.7,35-35,35s-35-15.7-35-35l0,0C228.5,246.7,244.2,231,263.5,231z M263.5,231c19.3,0,35,15.7,35,35s-15.7,35-35,35
	s-35-15.7-35-35l0,0C228.5,246.7,244.2,231,263.5,231z M263.5,231c19.3,0,35,15.7,35,35s-15.7,35-35,35s-35-15.7-35-35l0,0
	C228.5,246.7,244.2,231,263.5,231z"/>
<path id="Polygon_1" class="st7" d="M264,266l225.3,32.4l-14,52.2L264,266z"/>
<path class="st8" d="M263.5,236c16.6,0,30,13.4,30,30s-13.4,30-30,30s-30-13.4-30-30S247,236,263.5,236L263.5,236z M263.5,236
	c16.6,0,30,13.4,30,30s-13.4,30-30,30s-30-13.4-30-30S247,236,263.5,236L263.5,236z M263.5,236c16.6,0,30,13.4,30,30s-13.4,30-30,30
	s-30-13.4-30-30S247,236,263.5,236L263.5,236z M263.5,236c16.6,0,30,13.4,30,30s-13.4,30-30,30s-30-13.4-30-30S247,236,263.5,236
	L263.5,236z M263.5,236c16.6,0,30,13.4,30,30s-13.4,30-30,30s-30-13.4-30-30S247,236,263.5,236L263.5,236z M263.5,236
	c16.6,0,30,13.4,30,30s-13.4,30-30,30s-30-13.4-30-30S247,236,263.5,236L263.5,236z"/>
<path id="Polygon_1-2" class="st8" d="M264,266L291,492h-54L264,266z"/>
<path class="st9" d="M263.5,241c13.8,0,25,11.2,25,25c0,13.8-11.2,25-25,25c-13.8,0-25-11.2-25-25C238.5,252.2,249.7,241,263.5,241
	L263.5,241z M263.5,241c13.8,0,25,11.2,25,25c0,13.8-11.2,25-25,25c-13.8,0-25-11.2-25-25C238.5,252.2,249.7,241,263.5,241
	L263.5,241z M263.5,241c13.8,0,25,11.2,25,25c0,13.8-11.2,25-25,25c-13.8,0-25-11.2-25-25C238.5,252.2,249.7,241,263.5,241
	L263.5,241z M263.5,241c13.8,0,25,11.2,25,25c0,13.8-11.2,25-25,25c-13.8,0-25-11.2-25-25C238.5,252.2,249.7,241,263.5,241
	L263.5,241z M263.5,241c13.8,0,25,11.2,25,25c0,13.8-11.2,25-25,25c-13.8,0-25-11.2-25-25C238.5,252.2,249.7,241,263.5,241
	L263.5,241z M263.5,241c13.8,0,25,11.2,25,25c0,13.8-11.2,25-25,25c-13.8,0-25-11.2-25-25C238.5,252.2,249.7,241,263.5,241
	L263.5,241z"/>
<path id="Rounded_Rectangle_1" class="st10" d="M81.7,369l180.2-104c1.4-0.8,3.3-0.3,4.1,1.1s0.3,3.3-1.1,4.1l0,0l-180.2,104
	c-1.4,0.8-3.3,0.4-4.1-1.1C79.8,371.7,80.3,369.9,81.7,369C81.7,369,81.7,369,81.7,369z M267.1,262l180.2-104
	c1.4-0.8,3.3-0.3,4.1,1.1c0.8,1.4,0.3,3.3-1.1,4.1l-180.2,104c-1.4,0.8-3.3,0.4-4.1-1.1C265.1,264.7,265.6,262.9,267.1,262
	C267,262,267.1,262,267.1,262L267.1,262z"/>
<path id="Polygon_1-3" class="st9" d="M264,266L144.3,72.7l49.1-23L264,266z"/>
<path class="st10" d="M263.5,246c11,0,20,9,20,20c0,11-9,20-20,20c-11,0-20-9-20-20C243.5,255,252.5,246,263.5,246z M263.5,246
	c11,0,20,9,20,20c0,11-9,20-20,20c-11,0-20-9-20-20C243.5,255,252.5,246,263.5,246L263.5,246z M263.5,246c11,0,20,9,20,20
	c0,11-9,20-20,20c-11,0-20-9-20-20C243.5,255,252.5,246,263.5,246L263.5,246z M263.5,246c11,0,20,9,20,20c0,11-9,20-20,20
	c-11,0-20-9-20-20C243.5,255,252.5,246,263.5,246L263.5,246z M263.5,246c11,0,20,9,20,20c0,11-9,20-20,20c-11,0-20-9-20-20
	C243.5,255,252.5,246,263.5,246L263.5,246z M263.5,246c11,0,20,9,20,20c0,11-9,20-20,20c-11,0-20-9-20-20
	C243.5,255,252.5,246,263.5,246L263.5,246z"/>
<circle class="st11" cx="264" cy="266" r="200"/>
<circle id="circy_circ" class="st10" cx="203.5" cy="271" r="14.4"/>
</svg>
