<?xml version="1.0" encoding="utf-8"?>
<!-- Generator: Adobe Illustrator 25.1.0, SVG Export Plug-In . SVG Version: 6.00 Build 0)  -->
<svg version="1.1" id="OuterBall" xmlns="http://www.w3.org/2000/svg" xmlns:xlink="http://www.w3.org/1999/xlink" x="0px" y="0px"
	 viewBox="0 0 416 416" style="enable-background:new 0 0 416 416;" xml:space="preserve">
<style type="text/css">
	.st0{fill:#FFFFFF;}
	.st1{fill:none;stroke:#FFFFFF;stroke-width:3;stroke-miterlimit:10;}
	.st2{fill:none;stroke:#FFFFFF;stroke-width:2;stroke-miterlimit:10;}
	.st3{fill-rule:evenodd;clip-rule:evenodd;fill:#2F3438;stroke:#FFFFFF;stroke-miterlimit:10;}
	.st4{fill:#2F3438;}
	.st5{fill:none;stroke:#FFFFFF;stroke-width:4;stroke-miterlimit:10;}
	.st6{fill:#2F3438;stroke:#FFFFFF;stroke-width:3;stroke-miterlimit:10;}
	.st7{fill-rule:evenodd;clip-rule:evenodd;fill:#FFFFFF;stroke:#2F3438;stroke-miterlimit:10;}
	.st8{fill:none;}
</style>
<g id="Circle_0">
	<path class="st0" d="M208,16c105.6,0.2,191.2,85.9,191,191.6s-85.9,191.2-191.6,191S16.3,312.7,16.4,207
		c0.1-76.8,46.1-146,116.8-175.9C156.9,21.1,182.3,16,208,16 M208,8C97.5,8,8,97.5,8,208s89.5,200,200,200s200-89.5,200-200
		S318.5,8,208,8z"/>
</g>
<g id="Circle_1">
	<path class="st0" d="M208,29c98.9,0,179,80.1,179,179s-80.1,179-179,179S29,306.9,29,208c0-47.5,18.9-93,52.4-126.6
		S160.5,28.9,208,29 M208,22C105.3,22,22,105.3,22,208s83.3,186,186,186s186-83.3,186-186S310.7,22,208,22z"/>
</g>
<g id="Circle_2">
	<path class="st0" d="M208,40c92.8,0,168,75.2,168,168s-75.2,168-168,168S40,300.8,40,208c0-44.6,17.7-87.3,49.2-118.8
		C120.6,57.6,163.4,39.9,208,40 M208,34c-96.1,0-174,77.9-174,174s77.9,174,174,174s174-77.9,174-174S304.1,34,208,34z"/>
</g>
<g id="Circle_3">
	<path class="st0" d="M208,52c86.2,0,156,69.8,156,156s-69.8,156-156,156S52,294.2,52,208c0-41.4,16.4-81.1,45.7-110.3
		C126.9,68.3,166.6,51.9,208,52 M208,47c-88.9,0-161,72.1-161,161s72.1,161,161,161s161-72.1,161-161S296.9,47,208,47z"/>
</g>
<g id="Circle_4">
	<path class="st0" d="M208,62c80.6,0,146,65.4,146,146s-65.4,146-146,146S62,288.6,62,208c0-38.7,15.4-75.9,42.8-103.2
		C132.1,77.3,169.3,61.9,208,62 M208,58c-82.8,0-150,67.2-150,150s67.2,150,150,150s150-67.2,150-150S290.8,58,208,58z"/>
</g>
<circle id="Circle_5" class="st1" cx="208" cy="208" r="136"/>
<g id="Circle_6">
	<path class="st0" d="M208,169c21.5,0,39,17.5,39,39s-17.5,39-39,39s-39-17.5-39-39l0,0C169,186.5,186.5,169,208,169 M208,168
		c-22.1,0-40,17.9-40,40s17.9,40,40,40s40-17.9,40-40S230.1,168,208,168z"/>
</g>
<circle id="Circle_7" class="st2" cx="208" cy="208" r="35"/>
<path id="Polygon_7" class="st3" d="M237.7,219.8l2.2-7.2l2.8,0.4L406,236.5l4.5,0.7L397.1,285l-3.4-2.6L240.5,221L237.7,219.8z"/>
<circle id="Circle_978_2_" class="st4" cx="208" cy="208" r="34"/>
<circle id="Circle_8" class="st5" cx="208" cy="208" r="30"/>
<path id="Polygon_8" class="st3" d="M204.9,234.8l6.4,0.1l0.3,2.9l20.2,168.8v4.1l-48.4,0.8l0.9-4.9l20.2-168.8L204.9,234.8z"/>
<circle id="Circle_978_1_" class="st4" cx="208" cy="208" r="28.1"/>
<circle id="Circle_9" class="st6" cx="208" cy="208" r="25"/>
<path id="Polygon_10" class="st3" d="M209,209.6l-14.2-22.9L102.7,37.9l-1-3l43.7-18.5l0.6,1.5l53.5,163.9l0.8,2.6L209,209.6z"/>
<circle id="Circle_978" class="st4" cx="208" cy="208" r="23.6"/>
<path id="Rounded_Rectangle_1" class="st7" d="M33.8,306.3L205.9,207c1.4-0.8,3.3-0.3,4.1,1.1s0.3,3.3-1.1,4.1l0,0L36.8,311.5
	L33.8,306.3z M211.1,204l169.2-97.6l3,5.2l-169.2,97.6c-1.4,0.8-3.3,0.3-4.1-1.1l0,0c-0.8-1.4-0.4-3.2,0.9-4
	C211,204.1,211,204,211.1,204z"/>
<g id="Circle_10">
	<g>
		<circle class="st0" cx="208" cy="208" r="21.8"/>
		<path class="st4" d="M208,187c11.6,0,21,9.4,21,21s-9.4,21-21,21s-21-9.4-21-21S196.4,187,208,187 M208,185.5
			c-12.4,0-22.5,10.1-22.5,22.5s10.1,22.5,22.5,22.5s22.5-10.1,22.5-22.5S220.4,185.5,208,185.5L208,185.5z"/>
	</g>
	<path class="st8" d="M208,188c11,0,20,9,20,20s-9,20-20,20s-20-9-20-20S197,188,208,188 M208,186c-12.2,0-22,9.8-22,22
		s9.8,22,22,22s22-9.8,22-22S220.2,186,208,186z"/>
</g>
<g id="Circle_0_2">
	<path class="st4" d="M208,8c110.5,0,200,89.5,200,200s-89.5,200-200,200S8,318.5,8,208S97.5,8,208,8 M208,0
		C93.5,0.2,0.8,93.1,0.9,207.7S94,414.9,208.6,414.8c114.5-0.2,207.2-93.1,207.1-207.7c-0.1-83.2-50-158.3-126.7-190.7
		C263.4,5.5,235.8-0.1,208,0z"/>
</g>
</svg>
