<?xml version="1.0" encoding="utf-8"?>
<!-- Generator: Adobe Illustrator 25.1.0, SVG Export Plug-In . SVG Version: 6.00 Build 0)  -->
<svg version="1.1" id="OuterBall" xmlns="http://www.w3.org/2000/svg" xmlns:xlink="http://www.w3.org/1999/xlink" x="0px" y="0px"
	 viewBox="0 0 530 529" style="enable-background:new 0 0 530 529;" xml:space="preserve">
<style type="text/css">
	.st0{fill:#0B3D91;}
	.st1{fill-rule:evenodd;clip-rule:evenodd;fill:#124AA7;}
	.st2{fill-rule:evenodd;clip-rule:evenodd;fill:#1553BF;}
	.st3{fill-rule:evenodd;clip-rule:evenodd;fill:#185FD9;}
	.st4{fill-rule:evenodd;clip-rule:evenodd;fill:#1B6AF2;}
	.st5{fill-rule:evenodd;clip-rule:evenodd;fill:#1C6FFF;}
	.st6{fill-rule:evenodd;clip-rule:evenodd;fill:#FFBF00;}
	.st7{fill-rule:evenodd;clip-rule:evenodd;fill:#FFD400;}
	.st8{fill-rule:evenodd;clip-rule:evenodd;fill:#FFEF43;}
	.st9{fill-rule:evenodd;clip-rule:evenodd;fill:#FFF696;}
	.st10{display:none;fill-rule:evenodd;clip-rule:evenodd;fill:#FFF696;}
	.st11{fill-rule:evenodd;clip-rule:evenodd;fill:#FFFFFF;}
	.st12{display:none;fill:#FFFFFF;}
</style>
<circle id="Circle_0" class="st0" cx="264" cy="266" r="200"/>
<circle id="Circle_1" class="st1" cx="264" cy="266" r="186"/>
<circle id="Circle_2" class="st2" cx="264" cy="266" r="174"/>
<circle id="Circle_3" class="st3" cx="264" cy="266" r="161"/>
<circle id="Circle_4" class="st4" cx="264" cy="266" r="150"/>
<circle id="Circle_5" class="st5" cx="264" cy="266" r="136"/>
<circle id="Circle_6" class="st6" cx="264" cy="266" r="40"/>
<circle id="Circle_7" class="st7" cx="264" cy="266" r="35"/>
<path id="Polygon_7" class="st7" d="M264,266c20.6,2.9,173.6,25.1,198,28.5c-0.9,6.4-2.4,14-4,20.3c-2,7.7-5.3,18.3-8.3,25.6
	C426,330.8,284.3,274.2,264,266z"/>
<circle id="Circle_8" class="st8" cx="264" cy="266" r="30"/>
<path id="Polygon_8" class="st8" d="M264,266l3.6,29.8l20.2,168.8l-5.5,0.6l-3.8,0.3l-4,0.2l-3.7,0.2l-3.7,0.1l-4,0l-5.3-0.1
	l-5.8-0.3l-6.1-0.5l-5.6-0.6l20.2-168.8L264,266z"/>
<circle id="Circle_9" class="st9" cx="264" cy="266" r="25"/>
<path id="Polygon_9" class="st10" d="M264,266L144.3,72.7l49.1-23L264,266z"/>
<path id="Polygon_10" class="st9" d="M264,266c-4.3-7.1-97.7-157.7-105.3-170.1c7.1-4.4,15.9-9,23.5-12.4c6-2.7,13.5-5.5,19.7-7.7
	C206.6,90.1,261.2,257.6,264,266z"/>
<path id="Rounded_Rectangle_1" class="st11" d="M89.8,364.3L261.9,265c1.4-0.8,3.3-0.3,4.1,1.1s0.3,3.3-1.1,4.1l0,0L92.8,369.5
	L89.8,364.3z M267.1,262l169.2-97.6l3,5.2l-169.2,97.6c-1.4,0.8-3.3,0.4-4.1-1.1C265.1,264.7,265.6,262.9,267.1,262
	C267,262,267.1,262,267.1,262L267.1,262z"/>
<circle id="Circle_10" class="st11" cx="264" cy="266" r="20"/>
<circle id="mysteryCircle" class="st12" cx="264" cy="266" r="200"/>
</svg>
